<svg width="21" height="20" viewBox="0 0 21 20" fill="none" xmlns="http://www.w3.org/2000/svg">
<g id="Group 465">
<path id="Subtract" fill-rule="evenodd" clip-rule="evenodd" d="M3 0H18C19.3787 0 20.5 1.12125 20.5 2.5V17.5C20.5 18.8787 19.3787 20 18 20H14.25V13.125H16.125L17.375 10H14.25V7.5C14.25 6.86577 14.7231 6.86942 15.3355 6.87416C15.3893 6.87458 15.4442 6.875 15.5 6.875H16.75V3.75H14.25C12.1788 3.75 10.5 5.42875 10.5 7.5V10H8V13.125H10.5V20H3C1.62125 20 0.5 18.8787 0.5 17.5V2.5C0.5 1.12125 1.62125 0 3 0Z" fill="#1976D2"/>
</g>
</svg>
